HIERARCHY
ROOT Hips
{
	OFFSET 0.00000 0.00000 0.00000
	CHANNELS 6 Xposition Yposition Zposition Zrotation Yrotation Xrotation 
	JOINT LHipJoint
	{
		OFFSET 0 0 0
		CHANNELS 3 Zrotation Yrotation Xrotation
		JOINT LeftHip
		{
			OFFSET 1.65412 -1.54119 0.76744
			CHANNELS 3 Zrotation Yrotation Xrotation
			JOINT LeftKnee
			{
				OFFSET 2.19550 -6.03209 0.00000
				CHANNELS 3 Zrotation Yrotation Xrotation
				JOINT LeftAnkle
				{
					OFFSET 2.38814 -6.56138 0.00000
					CHANNELS 3 Zrotation Yrotation Xrotation
					JOINT LeftToe
					{
						OFFSET 0.17337 -0.47632 1.75875
						CHANNELS 3 Zrotation Yrotation Xrotation
						End Site
						{
							OFFSET 0.00000 -0.00000 0.92050
						}
					}
				}
			}
		}
	}
	JOINT RHipJoint
	{
		OFFSET 0 0 0
		CHANNELS 3 Zrotation Yrotation Xrotation
		JOINT RightHip
		{
			OFFSET -1.40291 -1.54119 0.76744
			CHANNELS 3 Zrotation Yrotation Xrotation
			JOINT RightKnee
			{
				OFFSET -2.22156 -6.10370 0.00000
				CHANNELS 3 Zrotation Yrotation Xrotation
				JOINT RightAnkle
				{
					OFFSET -2.46840 -6.78188 0.00000
					CHANNELS 3 Zrotation Yrotation Xrotation
					JOINT RightToe
					{
						OFFSET -0.15659 -0.43024 1.84117
						CHANNELS 3 Zrotation Yrotation Xrotation
						End Site
						{
							OFFSET -0.00000 -0.00000 0.95587
						}
					}
				}
			}
		}
	}
	JOINT lowerback
	{
		OFFSET 0 0 0
		CHANNELS 3 Zrotation Yrotation Xrotation
		JOINT Chest
		{
			OFFSET -0.01936 1.82120 -0.32061
			CHANNELS 3 Zrotation Yrotation Xrotation
			JOINT Chest2
			{
				OFFSET -0.00532 1.85767 -0.00071
				CHANNELS 3 Zrotation Yrotation Xrotation
				JOINT lowerneck
				{
					OFFSET 0 0 0
					CHANNELS 3 Zrotation Yrotation Xrotation
					JOINT Neck
					{
						OFFSET -0.10687 1.58194 0.10810
						CHANNELS 3 Zrotation Yrotation Xrotation
						JOINT Head
						{
							OFFSET 0.15346 1.57382 -0.25612
							CHANNELS 3 Zrotation Yrotation Xrotation
							End Site
							{
								OFFSET 0.05334 1.61251 -0.10513
							}
						}
					}
				}
				JOINT LeftCollar
				{
					OFFSET 0 0 0
					CHANNELS 3 Zrotation Yrotation Xrotation
					JOINT LeftShoulder
					{
						OFFSET 2.85758 0.89498 -0.01485
CHANNELS 3 Zrotation Xrotation Yrotation
						JOINT LeftElbow
						{
OFFSET 0 -4.791850 -0.000000
CHANNELS 3 Zrotation Xrotation Yrotation
							JOINT LeftWrist
							{
OFFSET 0 -2.655530 0.000000
CHANNELS 3 Zrotation Xrotation Yrotation
								JOINT lhand
								{
									OFFSET 0 0 0
CHANNELS 3 Zrotation Xrotation Yrotation
									JOINT LFingers
									{
OFFSET 0 -0.743900 0.000000
CHANNELS 3 Zrotation Xrotation Yrotation
										End Site
										{
OFFSET 0 -0.599750 0.000000
										}
									}
								}
								JOINT LThumb
								{
OFFSET 0 0.000000 0.000000
CHANNELS 3 Zrotation Xrotation Yrotation
									End Site
									{
OFFSET 0 -0.608910 0.608910
									}
								}
							}
						}
					}
				}
				JOINT RightCollar
				{
					OFFSET 0 0 0
					CHANNELS 3 Zrotation Yrotation Xrotation
					JOINT RightShoulder
					{
						OFFSET -2.93906 0.88031 0.02490
CHANNELS 3 Zrotation Xrotation Yrotation
						JOINT RightElbow
						{
OFFSET 0 -4.772540 -0.000000
CHANNELS 3 Zrotation Xrotation Yrotation
							JOINT RightWrist
							{
OFFSET 0 -2.759950 -0.000000
CHANNELS 3 Zrotation Xrotation Yrotation
								JOINT rhand
								{
									OFFSET 0 0 0
CHANNELS 3 Zrotation Xrotation Yrotation
									JOINT RFingers
									{
OFFSET 0 -0.701620 0.000000
CHANNELS 3 Zrotation Xrotation Yrotation
										End Site
										{
OFFSET 0 -0.565660 0.000000
										}
									}
								}
								JOINT RThumb
								{
OFFSET 0 0.000000 0.000000
CHANNELS 3 Zrotation Xrotation Yrotation
									End Site
									{
OFFSET 0 -0.574300 0.574300
									}
								}
							}
						}
					}
				}
			}
		}
	}
}
MOTION
Frames: 10
Frame Time: 0.008333333333333333
3.025678 15.694306 -1.146101 -191.464646 49.140825 -190.562202 0.000000 0.000000 0.000000 -34.512036 -0.581540 17.449300 0.045806 1.296272 3.565807 0.098079 3.422865 -8.141024 0.249309 -3.212594 -8.871087 0.000000 0.000000 0.000000 8.516527 18.622315 -25.664279 -2.201473 -9.273134 26.653943 0.017941 -13.679995 -19.230570 -0.136745 2.383497 -6.566900 -8.303208 -0.422383 9.834417 -2.482826 -1.510636 0.123979 2.266008 -0.507176 -5.251884 -11.752934 -7.860522 -10.885542 11.082680 -10.452558 15.575229 4.476037 -4.706236 7.807617 0.000000 0.000000 0.000000 5.401413 -5.393326 -32.527705 18.801756 -29.171403 4.933911 13.204490 -3.145183 -14.105716 0.000000 0.000000 0.000000 -7.125000 0.000000 0.000000 -13.068658 44.055117 -0.310628 0.000000 0.000000 0.000000 -1.978587 6.671827 21.156759 -12.820810 -21.024034 -2.388626 -16.539343 11.353009 -17.471100 0.000000 0.000000 0.000000 7.125000 0.000000 0.000000 7.521679 11.921812 5.857566
3.121054 15.693390 -1.205464 -191.841942 48.750881 -190.815441 0.000000 0.000000 0.000000 -34.617034 -0.094607 19.055951 0.012221 0.459881 1.264247 0.041848 3.791298 -6.888697 0.266430 -3.319031 -9.168345 0.000000 0.000000 0.000000 7.991447 18.597723 -25.728344 -2.131997 -9.135193 26.219463 0.006102 -13.611997 -19.274019 -0.145971 2.461450 -6.782834 -8.667041 -0.534907 9.711359 -2.507818 -1.684649 0.114185 2.462957 -0.584878 -5.166324 -11.927647 -7.852895 -10.833371 11.155430 -10.432988 15.658480 4.533802 -4.700954 7.837266 0.000000 0.000000 0.000000 5.219034 -5.427824 -32.471344 18.966563 -29.376882 5.014555 12.999656 -3.118171 -13.888702 0.000000 0.000000 0.000000 -7.125000 0.000000 0.000000 -13.191403 43.816886 -0.392619 0.000000 0.000000 0.000000 -2.086759 6.925098 21.438703 -12.884905 -21.118338 -2.411690 -16.525005 11.077001 -17.255780 0.000000 0.000000 0.000000 7.125000 0.000000 0.000000 7.524399 12.143812 5.824675
3.218107 15.691371 -1.264958 -192.133886 48.363694 -191.010391 0.000000 0.000000 0.000000 -34.710434 0.201366 20.140624 0.000000 0.000000 0.000000 0.012039 3.952038 -6.121605 0.280629 -3.407203 -9.414542 0.000000 0.000000 0.000000 7.551265 18.559947 -25.776241 -2.078996 -9.028516 25.884571 -0.009454 -13.519429 -19.326541 -0.154080 2.528872 -6.969687 -8.949651 -0.598300 9.593538 -2.561251 -1.783324 0.120141 2.574286 -0.628193 -5.077271 -11.953216 -7.894212 -10.802573 11.169726 -10.493845 15.717940 4.536329 -4.729349 7.861187 0.000000 0.000000 0.000000 5.104915 -5.520889 -32.593478 19.098823 -29.541222 5.079535 12.893171 -3.078155 -13.661974 0.000000 0.000000 0.000000 -7.125000 0.000000 0.000000 -13.224090 43.580066 -0.471992 0.000000 0.000000 0.000000 -2.079542 7.173272 21.512980 -12.952903 -21.218194 -2.436258 -16.412094 10.876000 -16.963297 0.000000 0.000000 0.000000 7.125000 0.000000 0.000000 7.590496 12.455076 5.826948
3.316529 15.688540 -1.324182 -192.285588 47.981703 -191.103776 0.000000 0.000000 0.000000 -34.763954 0.258447 20.584151 0.000000 0.000000 0.000000 0.011030 3.853602 -5.952921 0.282426 -3.417890 -9.444323 0.000000 0.000000 0.000000 7.227363 18.552495 -25.790088 -2.041983 -8.952910 25.648104 -0.030665 -13.418258 -19.433869 -0.160411 2.580391 -7.112676 -9.097009 -0.597540 9.474668 -2.653149 -1.779865 0.150093 2.555968 -0.625840 -4.977458 -11.787117 -7.997796 -10.775655 11.123854 -10.660427 15.724524 4.473140 -4.801896 7.867357 0.000000 0.000000 0.000000 5.100301 -5.698154 -32.978907 19.197531 -29.663359 5.128246 12.878715 -3.058977 -13.430222 0.000000 0.000000 0.000000 -7.125000 0.000000 0.000000 -13.173914 43.348459 -0.546986 0.000000 0.000000 0.000000 -1.906574 7.405590 21.280326 -13.023575 -21.321744 -2.461882 -16.227759 10.788569 -16.631686 0.000000 0.000000 0.000000 7.125000 0.000000 0.000000 7.703484 12.813639 5.857542
3.415851 15.687094 -1.383891 -192.251613 47.582461 -191.050284 0.000000 0.000000 0.000000 -34.671426 0.271603 21.052066 0.000000 0.000000 0.000000 0.011753 3.718931 -5.806684 0.259005 -3.273316 -9.040744 0.000000 0.000000 0.000000 7.038838 18.636565 -25.703199 -2.019936 -8.907441 25.506277 -0.044255 -13.424475 -19.599118 -0.172700 2.676388 -7.379127 -9.063540 -0.579251 9.358430 -2.772206 -1.733312 0.195634 2.403659 -0.607551 -4.873003 -11.539750 -8.139623 -10.748114 11.098698 -10.894421 15.674573 4.394708 -4.900423 7.859117 0.000000 0.000000 0.000000 5.210972 -5.855812 -33.549180 19.335382 -29.833161 5.196702 12.852620 -3.142613 -13.255142 0.000000 0.000000 0.000000 -7.125000 0.000000 0.000000 -13.150204 43.171861 -0.604382 0.000000 0.000000 0.000000 -1.617281 7.580959 20.790219 -13.068682 -21.387742 -2.478291 -16.101690 10.936975 -16.532725 0.000000 0.000000 0.000000 7.125000 0.000000 0.000000 7.784879 12.927636 5.901854
3.514603 15.686315 -1.443743 -192.245710 47.182506 -190.993937 0.000000 0.000000 0.000000 -34.602308 0.271818 21.490815 0.000000 0.000000 0.000000 0.010240 3.614758 -5.605588 0.258089 -3.268291 -9.026696 0.000000 0.000000 0.000000 6.844604 18.685712 -25.598039 -2.004216 -8.874867 25.404654 -0.059130 -13.398814 -19.733916 -0.177090 2.710818 -7.474720 -9.078221 -0.618248 9.240099 -2.867331 -1.769880 0.214007 2.313822 -0.627849 -4.785343 -11.354760 -8.218693 -10.724664 11.086865 -11.033827 15.649887 4.343397 -4.956367 7.852351 0.000000 0.000000 0.000000 5.257840 -5.925449 -33.788301 19.482845 -30.014050 5.270296 12.647435 -3.082417 -13.132353 0.000000 0.000000 0.000000 -7.125000 0.000000 0.000000 -13.298446 43.028760 -0.659780 0.000000 0.000000 0.000000 -1.398786 7.738438 20.379142 -13.059406 -21.374140 -2.474908 -15.896592 11.225168 -16.320335 0.000000 0.000000 0.000000 7.125000 0.000000 0.000000 7.916899 13.164863 5.963723
3.612383 15.684709 -1.502934 -192.228955 46.812814 -190.912664 0.000000 0.000000 0.000000 -34.518148 0.282755 21.894551 0.000000 0.000000 0.000000 0.007108 3.532085 -5.360786 0.271661 -3.351927 -9.260248 0.000000 0.000000 0.000000 6.684177 18.711875 -25.489014 -1.995081 -8.855842 25.345325 -0.072347 -13.341817 -19.806731 -0.177081 2.710792 -7.474694 -9.116297 -0.693946 9.127336 -2.920585 -1.861195 0.203452 2.288053 -0.673410 -4.723789 -11.243226 -8.247036 -10.691936 11.078095 -11.092684 15.648632 4.316023 -4.978437 7.846073 0.000000 0.000000 0.000000 5.226855 -5.926013 -33.816617 19.634822 -30.199761 5.346480 12.394646 -2.954065 -13.095064 0.000000 0.000000 0.000000 -7.125000 0.000000 0.000000 -13.511526 42.965532 -0.691790 0.000000 0.000000 0.000000 -1.267894 7.905698 20.118449 -13.023558 -21.321665 -2.461861 -15.690128 11.513957 -15.911824 0.000000 0.000000 0.000000 7.125000 0.000000 0.000000 8.047037 13.602109 5.988976
3.708380 15.680010 -1.560186 -192.145102 46.523954 -190.769536 0.000000 0.000000 0.000000 -34.362225 0.339717 22.245866 0.000000 0.000000 0.000000 0.002771 3.464352 -5.075831 0.292625 -3.478284 -9.613370 0.000000 0.000000 0.000000 6.620781 18.725248 -25.394824 -1.994647 -8.854902 25.342506 -0.079431 -13.245820 -19.757720 -0.176286 2.704214 -7.456477 -9.150128 -0.787992 9.032134 -2.896152 -1.983071 0.153790 2.345739 -0.732758 -4.708103 -11.240045 -8.227519 -10.629119 11.059156 -11.068613 15.674583 4.314649 -4.969473 7.839061 0.000000 0.000000 0.000000 5.077871 -5.864930 -33.742450 19.785540 -30.383009 5.422453 12.261637 -2.842960 -13.211736 0.000000 0.000000 0.000000 -7.125000 0.000000 0.000000 -13.660076 43.067168 -0.664827 0.000000 0.000000 0.000000 -1.271147 8.123282 20.146279 -12.992113 -21.275690 -2.450440 -15.588348 11.612774 -15.141243 0.000000 0.000000 0.000000 7.125000 0.000000 0.000000 8.102843 14.398280 5.893557
3.808759 15.671058 -1.618661 -191.993586 46.391815 -190.602564 0.000000 0.000000 0.000000 -34.108223 0.537869 22.574112 0.000000 0.000000 0.000000 -0.001373 3.408218 -4.792615 0.290325 -3.464742 -9.575531 0.000000 0.000000 0.000000 6.710046 18.794621 -25.271249 -2.009164 -8.885152 25.436670 -0.066281 -13.228505 -19.584274 -0.178907 2.724508 -7.512690 -9.159793 -0.826167 8.923592 -2.811531 -2.028649 0.091563 2.443506 -0.755375 -4.704853 -11.300532 -8.221856 -10.572101 11.023526 -11.050663 15.717547 4.316884 -4.968500 7.842231 0.000000 0.000000 0.000000 4.887323 -5.726519 -33.901688 19.979305 -30.617101 5.520981 12.493364 -3.071199 -13.528367 0.000000 0.000000 0.000000 -7.125000 0.000000 0.000000 -13.541648 43.405108 -0.544231 0.000000 0.000000 0.000000 -1.354435 8.408980 20.336436 -12.995337 -21.280431 -2.451584 -15.672930 11.351882 -14.747576 0.000000 0.000000 0.000000 7.125000 0.000000 0.000000 8.040464 14.793113 5.779322
3.912170 15.661882 -1.679306 -191.825751 46.292824 -190.463541 0.000000 0.000000 0.000000 -33.828175 0.791740 22.948911 0.000000 0.000000 0.000000 -0.005310 3.357317 -4.513136 0.281740 -3.413303 -9.431727 0.000000 0.000000 0.000000 6.868399 18.814360 -25.075745 -2.030973 -8.930217 25.577314 -0.053642 -13.203875 -19.405667 -0.172650 2.675830 -7.377505 -9.147858 -0.849496 8.799654 -2.729535 -2.048189 0.054140 2.522831 -0.767459 -4.670100 -11.349122 -8.231690 -10.555529 10.979694 -11.052704 15.777126 4.310524 -4.975405 7.859348 0.000000 0.000000 0.000000 4.712466 -5.577590 -34.050671 20.162005 -30.836816 5.614286 12.757748 -3.305977 -13.773082 0.000000 0.000000 0.000000 -7.125000 0.000000 0.000000 -13.374442 43.675814 -0.445878 0.000000 0.000000 0.000000 -1.417866 8.668815 20.456595 -12.998890 -21.285653 -2.452863 -15.659369 11.100447 -14.865071 0.000000 0.000000 0.000000 7.125000 0.000000 0.000000 8.051218 14.674398 5.808017
